<svg width="205" height="506" viewBox="0 0 205 506" fill="none" xmlns="http://www.w3.org/2000/svg">
<path d="M101.83 0.896644C101.161 2.56169 98.9329 15.4658 96.9275 29.4105C92.2482 63.7521 89.5744 69.5797 89.1287 46.6854L88.6831 28.9943L83.781 56.2594C80.8843 71.2448 77.542 86.4383 76.205 90.3928C72.8627 98.718 72.8627 99.3424 75.7594 97.6774C79.1017 95.8042 78.4333 99.3424 74.6453 104.129C70.8573 108.708 70.8573 108.708 71.303 88.3115C71.5258 78.5293 70.8573 73.5342 69.5204 74.783C66.6237 77.6968 59.7162 104.754 61.276 107.043C61.9444 108.084 61.276 111.622 59.7162 114.744C57.7108 118.907 57.2652 125.983 58.1565 138.263C59.0477 151.375 59.4934 153.248 59.939 145.547C60.6075 131.811 63.0585 119.115 65.0639 119.947C67.9606 121.196 80.2158 110.998 80.2158 107.459C80.2158 105.378 81.5528 101.84 83.3354 99.5505C85.3408 96.8448 85.7864 94.3473 84.6723 92.4741C83.5582 90.809 83.5582 88.5196 84.4495 87.2708C85.5636 86.2302 88.0146 80.6107 90.2428 74.9911L94.2536 65.0009L97.3731 76.0318C99.1557 82.2757 101.384 88.1034 102.498 89.144C104.726 91.2253 108.514 83.7326 110.742 73.118C111.411 69.996 112.525 67.4984 113.416 67.4984C116.09 67.4984 124.112 90.1847 122.329 92.6822C121.438 94.1391 122.106 97.2611 123.889 99.5505C125.672 101.84 127.008 105.17 127.008 107.043C127.008 108.708 129.237 112.455 131.688 115.368C134.139 118.282 135.476 119.115 134.584 117.45C133.025 114.744 133.248 114.744 137.258 117.45C144.389 122.653 144.834 124.11 144.834 144.507V164.071L136.59 151.791C131.911 144.923 128.345 138.679 128.791 137.638C129.014 136.806 128.345 136.182 127.008 136.182C124.112 136.182 124.112 137.014 128.123 145.964C131.688 154.081 132.579 175.102 129.46 179.681C128.345 181.346 125.894 181.97 123.666 181.346C121.661 180.513 120.547 179.056 121.215 178.016C121.884 176.975 119.21 170.523 114.976 163.655C110.965 156.786 106.732 148.877 105.618 145.964C103.835 141.177 102.944 142.009 94.6993 158.243C89.5744 167.817 87.3462 174.269 89.1287 172.604C95.3677 167.401 96.4819 169.066 91.357 175.726C77.9876 193.417 67.7378 171.147 77.9876 146.172L82.2212 135.141L75.7594 142.425C63.9498 155.746 53.2544 178.016 51.9174 192.169C50.8033 204.032 51.0261 205.281 55.4826 206.322C59.0477 207.154 60.1619 209.235 60.3847 215.063L60.8303 222.556L62.3901 215.271L63.9498 207.987L64.3955 215.271C64.8411 221.099 65.2868 221.723 66.6237 218.393C68.1834 214.855 68.4063 214.855 69.966 220.058C70.6345 223.18 72.4171 225.261 73.3084 224.637C74.4225 224.013 75.9822 224.845 76.4279 226.094C77.0963 227.551 77.0963 225.886 76.4279 222.348C75.0909 214.022 80.8843 194.874 87.1233 187.382C89.7972 184.26 92.4711 182.178 92.9167 182.803C93.5852 183.427 92.0254 186.341 89.3516 189.463C82.6669 197.372 83.5582 200.078 90.4657 193.001C95.5906 187.59 95.8134 187.59 92.6939 192.377C90.9113 195.291 88.9059 201.326 88.0146 205.905L86.6777 214.23L91.1341 205.905C93.3623 201.326 95.5906 198.621 95.5906 199.869C95.8134 202.367 89.3516 220.683 84.2266 231.922C75.5366 250.653 74.6453 257.938 81.33 255.648C83.1125 254.816 84.0038 253.567 83.3354 252.527C82.6669 251.486 83.3354 250.653 84.4495 250.653C85.7864 250.653 88.4603 247.531 90.2428 243.785C92.9167 237.957 93.1395 237.957 92.2482 242.744C91.357 246.491 92.9167 251.278 96.9275 257.938L103.167 267.512L109.628 256.897C115.422 247.323 115.867 245.45 113.639 238.998C109.628 227.759 112.748 228.383 117.204 239.622C119.433 245.034 122.552 250.861 124.335 252.527C126.786 254.816 126.563 255.857 123.443 259.187C121.438 261.476 120.547 263.141 121.661 263.141C125.449 262.933 131.911 252.735 129.682 250.029C128.568 248.572 127.008 245.242 126.34 242.328C125.672 239.414 121.438 227.343 117.204 215.479C108.514 192.377 107.846 186.549 115.422 201.118C118.096 206.113 120.101 209.027 120.324 207.57C120.547 202.575 115.422 193.209 108.514 186.133C102.275 179.681 102.498 179.681 110.965 187.174C116.09 191.544 120.324 194.25 120.324 193.209C120.324 191.961 118.318 189.255 115.867 187.174C113.416 185.092 111.411 182.386 111.411 181.346C111.411 177.599 120.769 186.965 125.226 195.291C127.9 200.078 129.682 207.987 129.905 215.479C130.128 222.139 130.796 226.718 131.019 225.678C131.465 224.429 133.248 223.596 135.03 223.596C136.813 223.596 138.15 221.931 138.372 219.85C138.372 216.936 138.818 216.936 140.378 220.474C142.16 224.221 142.383 224.221 142.383 220.891C142.606 218.809 143.497 217.561 144.611 218.393C145.948 219.017 147.062 215.896 147.508 211.733L148.399 203.824L150.628 211.109L153.079 218.393L154.638 209.86C156.198 201.535 151.296 172.604 147.731 169.274C146.617 168.234 146.84 157.619 147.954 145.339C149.514 128.689 149.291 121.612 147.285 115.993C145.057 110.165 144.834 108.292 147.062 107.043C148.845 106.003 149.068 104.962 147.508 104.129C146.171 103.505 143.275 95.5961 141.269 86.6464L137.258 70.6204L135.476 81.0269C134.584 86.6464 134.362 94.5554 135.03 98.0936C135.921 102.464 135.476 104.962 133.916 104.962C132.579 104.962 131.465 102.881 131.465 100.383C131.465 98.0936 129.46 86.022 127.231 73.9505C124.78 61.8789 122.106 47.1016 121.215 41.4821L119.433 31.0756L117.873 40.4415C116.981 45.6447 116.759 52.0968 117.427 55.0106C118.318 58.7569 117.873 59.5895 116.313 58.1326C114.976 56.8838 112.079 46.6854 110.297 35.2382C104.726 3.39421 103.389 -2.64158 101.83 0.896644ZM118.096 172.604C122.552 177.599 119.433 178.432 114.753 173.645C112.525 171.356 111.857 169.482 112.971 169.482C114.308 169.482 116.536 170.939 118.096 172.604ZM108.96 213.814C109.183 214.855 108.291 214.855 106.954 214.23C105.84 213.606 104.726 210.9 104.949 208.403C104.949 204.032 105.172 204.032 106.954 207.987C108.069 210.276 108.96 212.982 108.96 213.814Z" fill="#8005E9"/>
<path d="M36.9915 112.664C31.1981 129.731 25.4047 145.965 24.0678 149.087C22.9537 152.209 22.508 155.747 23.3993 156.788C24.0678 158.037 23.3993 159.077 21.6167 159.077C18.0516 159.077 10.2528 174.479 7.80175 186.134C7.13329 190.089 6.01918 195.292 5.35071 197.581C4.90506 199.871 6.01917 198.83 7.80175 195.5C9.58433 191.962 10.9213 187.175 11.1441 184.677C11.1441 177.809 18.0516 163.032 20.2798 164.489C21.3939 165.113 23.3993 163.24 24.9591 160.326C27.6329 154.707 32.535 152.625 30.3068 158.037C29.6383 159.702 29.6383 161.159 30.3068 161.159C30.7524 161.159 32.3122 158.661 33.4263 155.747C34.7632 152.833 36.5458 150.96 37.6599 151.585C38.5512 152.209 41.4479 150.752 43.6761 148.463C47.4641 144.716 47.9097 140.346 48.1326 113.08C48.1326 96.0138 48.1326 82.069 47.9097 82.069C47.6869 82.069 42.7848 95.8056 36.9915 112.664Z" fill="#8005E9"/>
<path d="M92.0245 87.688C88.4593 94.3482 88.2365 104.13 91.356 106.003C92.693 106.628 93.5842 109.125 93.5842 111.415C93.5842 113.704 95.144 118.491 97.3722 122.238C100.715 128.273 101.16 128.482 102.72 124.735C104.28 120.781 104.503 120.781 104.503 124.527C104.725 130.979 113.638 119.116 113.638 112.247C113.638 108.501 114.53 107.044 116.535 107.669C119.877 108.917 119.209 93.9319 115.421 86.6473C112.078 80.4034 110.742 80.8197 107.399 88.7286C104.725 95.3888 104.503 95.3888 101.383 91.6425C99.6004 89.353 98.0407 86.2311 98.0407 84.7742C98.0407 80.1953 94.9212 81.8603 92.0245 87.688ZM95.144 101.216C93.3614 102.257 93.3614 102.882 94.9212 102.882C98.932 102.882 100.269 100.176 97.8179 97.262C96.0353 95.3888 96.0353 94.5563 97.595 94.5563C98.932 94.5563 100.715 95.5969 101.383 96.6376C102.274 97.8864 104.057 98.0945 105.394 97.4701C106.954 96.6376 105.839 98.0945 103.166 100.592C95.8125 107.044 91.356 106.212 91.356 98.3026C91.356 92.0587 91.5788 91.8506 94.4755 95.8051C96.9266 98.7189 96.9266 100.176 95.144 101.216ZM114.307 103.09C112.97 104.338 112.747 102.465 113.415 98.3026C114.307 92.475 114.752 92.2669 115.421 96.4295C115.866 99.1352 115.421 102.049 114.307 103.09ZM109.85 102.882C109.182 105.379 108.068 106.836 107.399 106.212C106.285 104.963 108.513 98.7189 110.073 98.7189C110.519 98.7189 110.519 100.592 109.85 102.882Z" fill="#8005E9"/>
<path d="M157.533 114.746C157.979 144.925 157.979 145.341 164.218 151.585C167.783 155.123 172.462 159.494 174.913 161.159C179.369 164.281 179.369 164.073 175.136 159.494C170.902 154.915 172.908 152.834 177.587 157.205C182.489 161.784 182.266 155.54 176.918 138.265C172.239 123.071 158.201 84.1509 157.31 84.1509C157.31 84.1509 157.31 97.8875 157.533 114.746Z" fill="#8005E9"/>
<path d="M118.316 131.187C118.539 141.386 119.431 152.417 120.545 155.955C121.436 159.493 121.659 152 120.99 138.264C120.322 125.152 119.431 113.913 118.985 113.496C118.539 113.08 118.316 120.989 118.316 131.187Z" fill="#8005E9"/>
<path d="M87.3473 120.573C86.9016 121.614 86.2332 131.604 85.7875 142.427C85.1191 158.453 85.3419 160.534 87.1245 153.874C88.2386 149.295 88.907 139.513 88.4614 132.021C88.0158 124.528 87.5701 119.325 87.3473 120.573Z" fill="#8005E9"/>
<path d="M67.293 136.183C67.293 139.096 67.7386 140.137 68.4071 138.68C68.8527 137.431 68.8527 134.934 68.4071 133.477C67.7386 132.228 67.293 133.269 67.293 136.183Z" fill="#8005E9"/>
<path d="M42.7806 158.452C37.6557 171.564 37.4329 172.813 40.7752 169.483C43.6719 166.777 47.9055 152.832 45.9001 152.832C45.4545 152.832 44.1176 155.33 42.7806 158.452Z" fill="#8005E9"/>
<path d="M162.214 163.03C162.66 166.568 164.442 170.522 166.225 171.771C168.899 173.644 168.899 173.02 166.893 167.192C163.328 157.618 160.877 155.537 162.214 163.03Z" fill="#8005E9"/>
<path d="M181.598 159.285C180.707 160.534 182.043 163.448 184.495 165.946C186.946 168.443 190.065 174.271 191.625 178.85C193.185 183.429 195.19 189.048 196.304 191.337C197.864 195.292 198.087 195.292 198.087 191.129C198.532 182.388 190.956 164.905 186.277 163.24C182.266 161.575 182.043 161.367 185.609 161.367C187.837 161.159 188.951 160.118 188.283 159.077C186.5 156.372 183.38 156.372 181.598 159.285Z" fill="#8005E9"/>
<path d="M21.6149 175.103C20.7236 175.728 20.0552 177.393 20.0552 178.642C20.0552 179.89 21.1693 179.682 22.729 178.225C24.066 176.977 24.7344 175.312 24.2888 174.687C23.6203 174.063 22.2834 174.271 21.6149 175.103Z" fill="#8005E9"/>
<path d="M34.7603 180.515C28.967 187.592 23.6192 198.623 25.4018 200.08C25.8475 200.704 26.9616 198.831 27.8529 196.125C28.7441 193.419 32.5321 187.384 36.0973 182.388C43.6732 172.19 42.7819 170.733 34.7603 180.515Z" fill="#8005E9"/>
<path d="M180.485 176.56C180.485 178.433 181.599 179.89 182.714 179.89C184.051 179.89 184.942 179.058 184.942 178.017C184.942 176.768 184.051 175.311 182.714 174.687C181.599 174.062 180.485 174.895 180.485 176.56Z" fill="#8005E9"/>
<path d="M170.237 183.013C174.916 189.465 174.694 191.547 170.014 188.008C167.118 185.719 174.471 200.08 179.596 206.532C179.819 206.948 179.819 204.034 179.596 200.08C178.927 193.42 170.683 177.81 167.786 177.81C167.118 177.81 168.232 180.099 170.237 183.013ZM178.259 197.582C178.259 198.623 177.145 198.207 176.031 196.542C174.916 194.877 173.802 192.379 173.802 191.339C173.802 190.09 174.916 190.714 176.031 192.379C177.145 194.044 178.259 196.334 178.259 197.582Z" fill="#8005E9"/>
<path d="M36.1002 186.758C32.9807 190.296 26.7417 203.825 26.7417 207.155C26.7417 208.612 29.8612 204.241 33.6492 197.581C40.111 186.133 41.2251 180.722 36.1002 186.758Z" fill="#8005E9"/>
<path d="M171.796 209.236C171.573 217.77 163.106 229.841 160.432 225.679C159.318 223.806 158.204 224.43 157.089 227.552C156.198 230.466 151.073 234.004 143.274 237.126C132.133 241.913 131.465 242.537 134.584 245.659C136.59 247.532 139.709 248.365 141.492 247.741C143.274 247.116 144.834 247.532 144.834 248.573C144.834 249.614 142.829 250.863 140.601 251.695C135.698 253.152 114.976 273.341 116.536 275.006C117.204 275.63 122.552 273.757 128.345 270.635C133.916 267.721 139.486 265.848 140.601 266.472C141.715 267.097 142.606 266.264 142.606 264.599C142.606 261.685 146.394 259.188 149.513 259.812C150.405 259.812 152.856 258.563 155.084 256.69C164.22 249.406 171.573 250.863 171.573 260.02C171.573 262.934 172.91 261.477 175.806 255.858C181.154 245.659 181.6 248.157 177.143 262.102C170.682 282.29 164.665 288.326 166.225 272.924L167.116 264.183L164.443 273.549C161.991 281.666 160.209 283.539 151.073 287.91C140.155 292.905 140.155 292.905 123.666 286.869C120.547 285.828 121.215 286.869 125.449 290.199C128.791 292.697 131.242 295.402 130.574 296.027C129.905 296.443 127.677 295.819 125.671 294.154C122.106 291.448 122.106 291.656 124.112 295.402C125.449 297.692 126.34 305.601 125.894 313.094C125.449 320.586 125.226 330.993 125.003 336.404C125.003 341.607 123.443 349.308 121.661 353.471C119.878 357.634 119.21 361.38 120.101 361.796C120.992 362.421 124.112 356.801 126.786 349.308C129.682 342.024 132.802 335.364 133.916 334.739C135.03 334.115 135.921 331.825 135.921 329.536C135.921 327.246 137.481 324.957 139.264 324.333C141.046 323.5 142.606 321.835 142.606 320.17C142.606 318.713 145.503 314.342 149.291 310.596C154.416 305.393 156.421 304.352 157.758 306.433C159.318 308.723 159.986 308.307 161.1 304.976C162.66 299.565 169.122 296.859 171.796 300.814C173.355 303.311 173.801 303.103 173.801 300.398C173.801 298.524 176.252 296.027 179.149 294.778C183.828 292.697 184.274 293.113 183.382 297.068C182.491 301.23 182.714 301.23 185.611 296.443C187.616 293.529 188.507 288.742 187.839 284.788C187.17 281.041 187.839 277.711 189.176 276.879C190.736 275.838 190.513 273.757 188.062 270.219C185.165 266.472 184.719 262.726 185.833 255.233C189.176 233.588 189.621 222.14 187.616 215.272L185.388 207.988L185.165 217.978C184.942 223.389 183.16 231.298 181.154 235.669C179.149 239.832 176.698 245.243 176.029 247.532C175.361 249.822 174.247 250.654 173.355 249.614C172.687 248.365 173.578 241.913 175.361 234.836C178.48 223.806 178.258 221.1 175.361 211.942L172.018 201.744L171.796 209.236Z" fill="#8005E9"/>
<path d="M31.4189 211.942C28.5222 219.435 28.9678 229.842 32.533 244.827C33.4243 248.781 32.9786 250.655 30.9732 250.655C29.4135 250.655 28.745 250.03 29.4135 249.406C30.3048 248.781 28.2994 242.954 25.1799 236.502C20.9462 227.552 20.055 222.557 20.9462 215.272C22.0604 205.907 22.0604 205.907 18.9408 212.151C14.7072 220.268 14.7072 231.923 18.9408 245.243C22.0604 255.025 22.0604 257.107 18.9408 265.224C15.5985 274.173 16.267 279.169 20.055 273.549C21.8375 270.843 22.2832 270.843 22.2832 273.757C22.2832 275.63 21.1691 280.001 19.8321 283.747C17.8267 289.159 18.0496 291.24 22.0604 297.068C26.7396 303.936 28.5222 303.52 24.5114 296.443C22.7288 293.113 22.9516 292.697 25.4027 293.53C27.1853 294.154 29.1907 296.027 29.8591 297.692C30.5276 299.149 32.533 299.982 34.5384 299.357C36.7666 298.525 37.8807 299.357 37.8807 301.855C37.8807 304.769 38.5492 304.977 39.6633 303.104C42.56 298.941 49.0218 302.479 49.2447 308.723V314.134L51.4729 308.931L53.7011 303.936L59.0488 309.972C61.9455 313.51 66.1792 319.546 68.1846 323.5C70.4128 327.455 73.7551 334.115 75.9833 338.07C77.9887 342.024 80.8854 350.557 82.2224 356.801C86.456 376.782 86.6788 376.99 85.3419 357.842C84.6734 347.435 83.7821 336.196 83.5593 332.866C83.5593 329.328 82.4452 323.084 81.5539 318.921C80.217 313.302 80.6626 308.723 83.3365 302.687C87.5701 292.697 87.7929 290.616 84.2278 293.946C82.668 295.403 80.4398 296.443 79.1028 296.443C77.9887 296.235 79.9941 293.946 83.5593 291.032C88.2386 287.286 88.907 286.037 85.7875 287.078C71.3041 291.865 66.8476 292.281 59.2717 289.367C48.799 285.412 42.3372 278.752 42.3372 272.3C42.3372 269.386 41.4459 267.513 40.109 268.346C38.772 268.97 38.5492 272.092 39.2177 275.006C41.6687 284.164 34.984 279.377 32.0874 270.011C30.5276 265.224 27.6309 258.147 25.6255 253.985C19.6093 242.329 22.9516 240.873 29.4135 252.528C34.3156 261.477 35.4297 262.31 36.321 258.772C37.2123 255.65 38.772 254.609 41.2231 255.65C44.1198 256.69 44.5654 256.066 43.4513 252.528C41.0002 245.66 46.5708 249.822 50.3588 257.731C53.0326 263.351 53.2555 263.559 53.4783 259.396C53.4783 254.817 53.9239 255.025 65.9563 262.934C72.8638 267.513 81.9995 272.3 86.6788 273.757C91.1352 275.006 96.7058 278.544 99.3797 281.458L104.059 286.869L110.075 277.295C113.195 272.3 115.869 266.681 115.869 265.224C115.869 263.767 117.651 260.645 119.879 258.356C123.444 254.401 123.444 254.193 118.765 256.482C116.091 257.939 111.412 261.894 108.293 265.64C105.173 269.386 102.499 271.884 102.054 271.468C87.5701 252.944 88.2386 253.568 82.4452 256.899C79.5485 258.564 79.5485 259.188 82.8908 262.31C86.456 265.64 86.6788 265.64 85.3419 261.477C84.6734 258.98 84.8962 256.899 85.5647 256.899C87.5701 256.899 94.2548 271.676 92.695 272.925C92.2494 273.341 86.6788 269.386 80.6626 263.767C74.6464 258.356 65.9563 251.071 61.4999 247.949C57.0434 244.827 53.4783 241.081 53.4783 239.832C53.4783 238.375 56.5978 240.04 60.3858 243.578C65.065 247.533 67.7389 248.781 68.4074 246.908C69.0758 245.66 71.0812 244.411 73.0866 244.411C75.3149 244.203 71.0812 241.497 64.1738 238.167C57.0434 234.629 50.3588 230.05 49.0218 227.76C47.6849 225.471 45.6795 224.014 44.5654 224.638C42.1144 226.095 37.6579 218.603 35.6525 210.069L34.3156 203.825L31.4189 211.942Z" fill="#8005E9"/>
<path d="M201.431 258.147C201.431 263.142 202.099 266.681 203.213 266.056C205.441 264.807 205.664 251.279 203.436 250.03C202.322 249.406 201.653 253.152 201.431 258.147Z" fill="#8005E9"/>
<path d="M0.222996 256.066C0.00017395 260.02 2.00557 264.807 4.45662 267.513C8.02177 271.467 8.69024 271.676 6.90766 268.345C5.57073 266.056 3.56533 260.853 2.45122 256.898L0.445818 249.614L0.222996 256.066Z" fill="#8005E9"/>
<path d="M0 270.428C0 271.469 1.11411 273.966 2.22822 275.631C3.34233 277.297 4.45644 277.713 4.45644 276.672C4.45644 275.423 3.34233 273.134 2.22822 271.469C1.11411 269.804 0 269.179 0 270.428Z" fill="#8005E9"/>
<path d="M110.743 284.995C109.183 288.741 100.048 289.157 96.2596 285.619C92.4716 282.081 92.9172 286.452 97.1509 291.863C98.9334 294.36 102.053 296.442 103.613 296.442C106.732 296.442 114.977 284.37 112.971 282.705C112.303 282.081 111.411 283.121 110.743 284.995Z" fill="#8005E9"/>
<path d="M182.936 312.053C181.153 316.84 175.583 322.668 167.115 328.704C152.186 339.318 133.915 358.466 132.578 364.71C132.132 367.208 130.572 370.954 129.236 373.452C122.996 384.275 120.991 398.011 121.66 424.444C122.328 452.749 124.111 467.11 127.007 467.11C127.899 467.11 129.236 471.065 129.681 476.06C130.35 480.847 133.246 488.132 136.143 492.294C139.04 496.457 142.605 501.66 144.165 503.741C145.724 506.031 145.056 502.909 142.605 497.289C132.801 472.314 129.236 458.785 128.79 444.841C128.344 436.515 129.013 429.855 130.127 429.855C132.801 430.063 135.92 425.276 135.92 420.697C135.92 417.992 134.806 417.159 131.687 418.2C128.121 419.24 127.453 418.2 126.562 411.956C125.67 404.255 129.904 397.595 132.132 403.006C133.023 404.671 133.915 404.047 134.806 401.133C135.697 398.636 138.371 395.93 140.599 395.305C143.273 394.473 144.833 391.975 144.833 389.062C144.833 381.985 149.29 380.32 149.512 387.396C149.512 390.518 150.181 391.975 150.849 390.518C151.295 389.27 152.855 388.437 153.969 389.27C155.083 389.894 155.974 389.27 155.974 388.021C155.974 386.98 161.322 382.818 167.784 378.863C181.599 370.538 183.604 368.457 188.506 357.842L192.071 349.933L180.485 359.507C174.023 364.918 161.099 372.827 151.518 376.99C141.714 381.361 134.36 385.94 134.806 387.396C135.475 389.478 129.681 393.224 127.899 391.559C126.562 390.31 132.132 373.452 133.692 373.452C134.806 373.452 136.589 370.538 137.926 367.208C139.263 363.461 139.263 361.38 138.148 362.005C136.811 362.837 135.92 362.629 135.92 361.588C136.143 358.883 155.974 345.77 159.762 345.77C161.545 345.77 165.778 343.273 168.898 340.359C172.463 337.029 174.914 335.988 175.583 337.653C176.697 341.191 180.485 340.775 180.485 337.029C180.485 330.577 184.941 334.115 185.164 340.567C185.164 345.146 186.724 341.816 189.397 330.785C192.963 316.008 192.963 313.718 190.066 309.556C188.061 306.85 186.501 304.769 186.278 304.769C186.055 304.769 184.495 308.099 182.936 312.053Z" fill="#8005E9"/>
<path d="M14.9268 312.262C12.6986 316.424 12.253 319.546 13.5899 321.628C14.704 323.293 15.5953 326.623 15.5953 329.12C15.5953 332.451 16.7094 333.283 19.8289 332.451C22.7256 331.826 24.5082 332.867 25.6223 335.781C26.2908 338.07 28.2962 339.527 29.8559 338.903C31.8613 338.278 33.4211 340.984 34.9808 346.812L37.4319 355.761L37.6547 347.852C37.6547 343.69 38.7688 340.151 39.6601 340.151C42.5568 340.151 62.8336 352.639 69.9639 358.675C74.866 362.838 75.7573 363.254 73.9747 359.924C70.8552 354.096 47.6817 333.699 36.095 326.623C30.7472 323.293 24.731 317.465 22.5028 313.302L18.492 306.018L14.9268 312.262Z" fill="#8005E9"/>
<path d="M15.5952 355.968C15.5952 360.755 22.2799 368.248 32.9753 375.324C36.7633 377.822 40.1057 381.568 40.1057 383.441C40.1057 385.939 40.7741 386.355 41.8882 384.482C43.2252 382.401 44.5621 382.401 48.1273 384.898C54.1435 389.061 55.7032 388.853 55.7032 382.817C55.7032 378.862 53.475 376.781 46.3447 373.243C40.9969 370.745 32.0841 365.542 26.2907 361.796C20.2745 357.841 15.5952 355.344 15.5952 355.968Z" fill="#8005E9"/>
<path d="M72.4171 368.456C78.6561 377.822 82.4441 392.183 78.4333 392.183C74.8681 392.183 72.8627 388.02 76.2051 387.812C77.7648 387.812 75.0909 385.939 70.1889 383.858L61.276 379.903L60.6075 385.315C60.1619 388.645 61.0531 391.559 63.2814 392.599C65.0639 393.64 68.1835 395.929 70.1889 397.594C72.1943 399.467 74.4225 400.508 75.0909 399.676C78.2105 396.97 82.4441 403.63 82.4441 411.331C82.4441 419.448 82.2213 419.448 75.7594 418.199C70.1889 417.159 69.0747 417.575 69.0747 420.697C69.2976 425.692 73.9768 431.311 77.3192 430.271C78.6561 429.855 80.4387 431.311 81.33 433.601C83.1125 439.012 80.6615 446.713 77.7648 445.048C76.2051 444.216 75.9822 446.921 76.8735 452.749C77.7648 458.993 77.0963 464.404 74.8681 469.607C72.8627 473.978 71.303 479.598 71.303 482.303C71.303 485.009 68.8519 491.461 66.1781 496.873C63.2814 502.076 61.7216 506.03 63.0585 505.198C64.1727 504.573 67.0693 499.995 69.2976 494.999C71.7486 490.004 74.6453 485.425 75.7594 484.801C77.0963 484.177 77.9876 481.471 77.9876 478.765C77.9876 476.06 79.993 468.567 82.4441 462.115C85.3408 453.998 86.9005 444.632 86.9005 433.185C86.9005 423.819 86.9005 411.747 86.9005 406.336C87.1233 392.391 80.8843 374.076 73.0855 366.583L66.6237 359.923L72.4171 368.456Z" fill="#8005E9"/>
<path d="M22.5045 391.768C24.0643 395.307 38.9933 409.668 46.3465 414.663C57.4876 421.947 63.9494 423.82 65.5092 419.866C67.0689 416.12 65.732 415.079 52.3627 408.419C47.4606 406.129 38.5477 400.926 32.5315 396.972C26.7381 393.017 22.0589 390.728 22.5045 391.768ZM55.0365 415.495C54.3681 417.16 53.6996 416.536 53.6996 414.246C53.4768 411.957 54.1452 410.708 54.8137 411.541C55.4822 412.165 55.705 414.038 55.0365 415.495Z" fill="#8005E9"/>
<path d="M169.345 397.594C163.775 401.548 157.536 405.919 155.085 407.376C152.856 408.833 151.297 411.747 151.742 413.828C152.634 417.158 153.525 416.742 160.432 411.747C168.9 405.503 181.6 392.391 180.263 391.35C179.818 390.934 174.916 393.847 169.345 397.594Z" fill="#8005E9"/>
<path d="M40.3308 395.513C40.3308 397.802 40.9993 398.426 41.6677 396.761C42.3362 395.305 42.1134 393.431 41.4449 392.807C40.7765 391.974 40.108 393.223 40.3308 395.513Z" fill="#8005E9"/>
<path d="M142.16 413.205C138.595 415.078 136.367 423.403 139.486 423.403C143.497 423.403 149.291 418.408 149.291 415.078C149.291 410.499 147.731 410.083 142.16 413.205Z" fill="#8005E9"/>
<path d="M31.8633 422.571C33.8687 424.86 35.6513 428.398 35.6513 430.272C35.6513 432.353 36.7654 433.186 38.9936 432.561C41.4447 431.52 42.336 432.769 42.5588 437.14C42.7816 440.886 43.2273 441.719 43.8957 439.429C44.787 436.516 45.6783 436.099 48.1294 438.181C49.9119 439.429 51.4717 442.551 51.4717 445.049C51.6945 448.587 51.9173 448.587 52.8086 445.673C54.1456 441.094 56.3738 441.094 61.053 446.09C65.0638 450.252 71.5257 450.668 73.0854 446.714C73.5311 445.257 71.08 443.176 67.5149 441.927C60.1618 439.429 41.2219 428.607 33.4231 422.571L27.8525 418.2L31.8633 422.571Z" fill="#8005E9"/>
<path d="M168.679 422.987C166.674 424.86 157.538 430.896 148.402 435.891C139.044 441.094 131.468 446.505 131.468 447.962C131.468 449.835 133.028 450.252 135.924 449.419C139.489 448.379 140.381 449.003 140.603 452.957C140.826 456.912 141.272 456.496 142.386 451.501C143.277 447.13 145.283 445.048 148.848 444.632C151.522 444.216 153.75 442.759 153.75 441.302C153.75 439.013 164 432.769 167.119 433.185C167.788 433.393 169.793 430.271 171.799 426.317C175.809 418.616 174.25 417.159 168.679 422.987Z" fill="#8005E9"/>
</svg>
